<?xml version="1.0" standalone="no"?>
<!DOCTYPE svg PUBLIC "-//W3C//DTD SVG 20010904//EN"
 "http://www.w3.org/TR/2001/REC-SVG-20010904/DTD/svg10.dtd">
<svg version="1.0" xmlns="http://www.w3.org/2000/svg"
 width="862.000000pt" height="862.000000pt" viewBox="0 0 862.000000 862.000000"
 preserveAspectRatio="xMidYMid meet">
<metadata>
Created by potrace 1.14, written by Peter Selinger 2001-2017
</metadata>
<g transform="translate(0.000000,862.000000) scale(0.100000,-0.100000)"
fill="#000000" stroke="none">
<path d="M4400 8388 c-1073 -51 -2100 -554 -2813 -1376 -470 -542 -784 -1198
-913 -1907 -24 -134 -42 -282 -55 -459 l-13 -168 -55 6 c-107 13 -319 74 -442
129 l-37 16 -5 -37 c-21 -142 -60 -513 -54 -518 4 -4 82 -11 174 -15 93 -4
213 -10 268 -13 55 -3 117 -6 138 -6 36 0 37 -1 37 -35 0 -114 73 -503 135
-721 5 -15 -17 -51 -87 -145 -84 -112 -226 -327 -231 -351 -1 -6 32 -12 73
-14 156 -8 368 -48 438 -82 28 -14 47 -41 114 -167 122 -228 252 -428 387
-600 149 -188 380 -430 553 -577 l76 -66 -36 -6 c-69 -11 -477 -6 -652 9 -150
12 -366 39 -489 61 l-35 6 26 -34 c38 -49 82 -143 114 -238 25 -77 28 -99 28
-230 1 -110 -3 -161 -17 -210 -32 -116 -105 -258 -182 -355 -55 -70 -56 -68
21 -61 543 55 1144 330 1535 703 l77 74 134 -77 c451 -263 952 -432 1493 -505
190 -26 620 -36 820 -20 506 40 978 167 1424 382 734 353 1335 911 1741 1614
262 453 424 934 501 1485 26 190 36 606 20 815 -88 1119 -622 2126 -1501 2831
-260 209 -597 410 -910 544 -568 243 -1167 349 -1800 318z"/>
</g>
</svg>
